<svg width="151" height="152" viewBox="0 0 151 152" fill="none" xmlns="http://www.w3.org/2000/svg">
<g clip-path="url(#clip0_4562_65110)" fill="var(--color-cipher, #5f5bf7)">
<path d="M10.3447 86.7804C10.2523 86.214 10.1598 85.6245 10.0789 85.0697C9.68591 82.2957 7.11996 80.377 4.34595 80.77C1.57194 81.163 -0.346745 83.729 0.046239 86.503C0.138706 87.1618 0.242731 87.8206 0.358315 88.4795C1.68753 96.3276 4.24192 103.921 7.95216 110.96C9.24669 113.434 12.2981 114.382 14.7716 113.087C17.2451 111.793 18.1929 108.741 16.8983 106.268C13.6967 100.153 11.489 93.5767 10.3447 86.7804Z"/>
<path d="M24.4806 31.4388C25.8445 31.4388 27.1506 30.8955 28.1099 29.9131C33.3112 24.55 39.414 20.1116 46.1179 16.8174C48.6376 15.6269 49.7241 12.6218 48.5336 10.0905C47.3431 7.57075 44.3379 6.48427 41.8066 7.67478C41.7488 7.69789 41.7026 7.72101 41.6563 7.75569C33.9007 11.5584 26.8732 16.6672 20.8513 22.8625C18.9095 24.8621 18.9557 28.0637 20.9553 30.0055C21.8915 30.9302 23.163 31.4503 24.4806 31.4388Z"/>
<path d="M63.9293 11.0496H64.172C71.4885 9.80133 78.9552 9.80133 86.2716 11.0496C86.5606 11.0959 86.8496 11.1305 87.1385 11.1305C89.9241 11.1421 92.2011 8.88822 92.2126 6.10265C92.2126 3.62916 90.4326 1.51398 87.9938 1.09788C79.51 -0.358473 70.8297 -0.358473 62.3458 1.09788H62.184C59.4331 1.58333 57.5953 4.19552 58.0808 6.94641C58.5662 9.6973 61.1784 11.5351 63.9293 11.0496Z"/>
<path d="M14.9334 38.2812C12.4715 36.9866 9.42005 37.9229 8.11396 40.3848C4.06853 48.0018 1.35232 56.2775 0.104015 64.8192C-0.300527 67.5816 1.61816 70.136 4.36905 70.5406C4.61178 70.5752 4.86606 70.5984 5.10879 70.5984C7.61695 70.5984 9.74369 68.7606 10.102 66.2755C11.1769 58.8782 13.5233 51.712 17.037 45.1122C18.3431 42.6502 17.4069 39.5873 14.9334 38.2812Z"/>
<path d="M139.798 64.7268C139.891 65.2816 139.983 65.8827 140.064 66.3912C140.423 68.8763 142.549 70.7141 145.057 70.7141C145.3 70.7256 145.543 70.7256 145.786 70.7141C148.548 70.3095 150.467 67.7551 150.062 64.9927C149.97 64.357 149.866 63.7097 149.762 63.074C148.421 55.2028 145.843 47.5974 142.133 40.5352C140.908 38.027 137.88 36.9868 135.383 38.212C132.875 39.4372 131.835 42.4654 133.06 44.962C133.106 45.0545 133.152 45.147 133.199 45.2279C136.412 51.3307 138.643 57.9074 139.798 64.7153V64.7268Z"/>
<path d="M122.091 121.559C116.878 126.922 110.787 131.361 104.071 134.667C101.575 135.903 100.535 138.932 101.771 141.428C102.627 143.15 104.372 144.248 106.302 144.248C107.077 144.248 107.84 144.075 108.533 143.728C116.289 139.914 123.316 134.794 129.338 128.598C131.361 126.68 131.442 123.478 129.511 121.455C127.593 119.433 124.391 119.352 122.368 121.282C122.276 121.374 122.183 121.467 122.103 121.559H122.091Z"/>
<path d="M108.602 7.84832C106.094 6.60002 103.054 7.61715 101.795 10.1138C100.546 12.6219 101.563 15.6618 104.072 16.9216C110.787 20.2389 116.878 24.6773 122.103 30.0404C124.044 32.04 127.246 32.0746 129.246 30.1328C131.245 28.191 131.28 24.9894 129.338 22.9898C123.339 16.806 116.323 11.6857 108.602 7.84832Z"/>
<path d="M86.1098 140.48C78.7356 141.752 71.2111 141.752 63.8368 140.48C61.0859 139.995 58.4738 141.833 57.9883 144.584C57.5029 147.334 59.3406 149.947 62.0915 150.432C70.5869 151.9 79.2557 151.9 87.7511 150.432H87.936C90.6754 149.947 92.49 147.334 92.0046 144.607C91.5076 141.844 88.8722 140.006 86.1098 140.492V140.48Z"/>
<path d="M45.9792 134.586C39.2753 131.257 33.1841 126.818 27.9597 121.455C26.0179 119.456 22.8162 119.421 20.8166 121.363C18.817 123.305 18.7823 126.506 20.7241 128.506C26.746 134.69 33.7851 139.81 41.5292 143.636C44.0142 144.873 47.031 143.855 48.2677 141.37C48.2677 141.359 48.2793 141.336 48.2908 141.324C49.5045 138.828 48.4758 135.811 45.9792 134.586Z"/>
<path d="M145.786 80.9086C143.035 80.4694 140.457 82.3418 140.018 85.0927C140.018 85.1158 140.018 85.1505 140.006 85.1736C138.92 92.5825 136.574 99.7372 133.071 106.349C131.765 108.81 132.713 111.873 135.175 113.18C137.637 114.486 140.7 113.538 142.006 111.076C146.04 103.436 148.745 95.1716 149.993 86.63C150.386 83.8907 148.513 81.3478 145.786 80.9086Z"/>
<path d="M44.3841 42.2573C51.4462 35.7383 60.4155 31.6467 69.9627 30.5833C73.3493 30.2019 76.7822 30.2019 80.1688 30.5833C82.9428 30.9069 85.4509 28.9073 85.7746 26.1333C86.0982 23.3593 84.0986 20.8512 81.3246 20.5275C77.1751 20.0536 72.991 20.0536 68.8416 20.5275C57.1561 21.8221 46.1987 26.8268 37.5646 34.7906C35.5073 36.6746 35.3801 39.8762 37.2641 41.9336C39.1481 43.991 42.3498 44.1182 44.4072 42.2341H44.3841V42.2573Z"/>
<path d="M75.0368 131.349C77.1405 131.349 79.2441 131.234 81.3362 130.991H81.4402C84.2142 130.737 86.2716 128.286 86.0173 125.501C85.763 122.727 83.3126 120.669 80.5271 120.924C80.4462 120.924 80.3653 120.935 80.2843 120.947H80.2034C67.1309 122.438 54.0584 118.184 44.3725 109.284C42.3845 107.331 39.1828 107.366 37.2294 109.354C35.2761 111.342 35.3108 114.543 37.2988 116.497C37.3797 116.578 37.4722 116.659 37.5646 116.74C47.7938 126.125 61.1553 131.326 75.0368 131.338V131.349Z"/>
<path d="M97.4254 36.1893C108.868 42.6504 116.959 53.7464 119.606 66.6225C120.091 68.9688 122.149 70.6563 124.553 70.6679C124.9 70.6679 125.235 70.6332 125.57 70.5639C128.298 69.9975 130.066 67.3275 129.5 64.5998C126.275 48.8688 116.393 35.2993 102.407 27.4049C100.014 25.9717 96.9169 26.7346 95.4721 29.1271C94.0273 31.5197 94.8017 34.6174 97.1943 36.0622C97.2636 36.1084 97.3445 36.1546 97.4254 36.1893Z"/>
<path d="M31.2538 50.2556C28.7109 49.0998 25.7289 50.221 24.5615 52.7523C21.2558 59.9531 19.5452 67.7897 19.5567 75.7187C19.5567 77.8223 19.6839 79.9144 19.915 82.0065C20.5623 87.8088 22.1227 93.4724 24.5384 98.7892C25.6942 101.344 28.7109 102.476 31.2653 101.309C33.8197 100.142 34.9525 97.1364 33.7851 94.582C28.3295 82.6306 28.3295 68.8877 33.7851 56.9364C34.9409 54.3935 33.8082 51.3999 31.2653 50.2556C31.2653 50.2556 31.2653 50.2556 31.2538 50.2556Z"/>
<path d="M129.5 86.7917C130.055 84.0524 128.298 81.3824 125.558 80.8276C122.819 80.2728 120.149 82.0297 119.594 84.769C116.971 97.6566 108.914 108.776 97.4948 115.283C95.0675 116.647 94.2122 119.722 95.5761 122.149C96.4777 123.744 98.1652 124.726 99.9914 124.715C100.87 124.715 101.725 124.495 102.488 124.056C116.439 116.115 126.287 102.523 129.5 86.7917Z"/>
<path d="M110.417 76.574C110.879 57.0519 95.4258 40.8587 75.9038 40.3963C56.3817 39.934 40.1884 55.3875 39.7261 74.9096C39.2638 94.4317 54.7173 110.625 74.2394 111.087C74.2394 111.087 74.2394 111.087 74.2509 111.087H75.0947C94.2816 111.064 109.955 95.7493 110.417 76.5624V76.574ZM74.4936 100.997C60.5658 100.696 49.516 89.1495 49.8165 75.2217C49.9668 68.5063 52.787 62.1261 57.6531 57.4912C67.7551 47.863 83.7403 48.256 93.3569 58.3465C97.9687 63.1779 100.477 69.6505 100.327 76.3313C100.003 90.2707 88.433 101.309 74.4936 100.997Z"/>
</g>
<defs>
<clipPath id="clip0_4562_65110">
<rect width="150.12" height="151.53" fill="white"/>
</clipPath>
</defs>
</svg>
